<mxfile>
    <diagram id="ePWEvkxoJoS64kwOmTT4" name="UseCase">
        <mxGraphModel dx="990" dy="564" grid="1" gridSize="10" guides="1" tooltips="1" connect="1" arrows="1" fold="1" page="1" pageScale="1" pageWidth="827" pageHeight="1169" math="0" shadow="0">
            <root>
                <mxCell id="0"/>
                <mxCell id="1" parent="0"/>
                <mxCell id="fBbD-oj5oAEslkXOo3_l-1" value="" style="html=1;" parent="1" vertex="1">
                    <mxGeometry x="623" y="150" width="567" height="780" as="geometry"/>
                </mxCell>
                <mxCell id="fBbD-oj5oAEslkXOo3_l-2" style="edgeStyle=orthogonalEdgeStyle;rounded=0;orthogonalLoop=1;jettySize=auto;html=1;exitX=1;exitY=1;exitDx=0;exitDy=0;exitPerimeter=0;" parent="1" source="fBbD-oj5oAEslkXOo3_l-3" edge="1">
                    <mxGeometry relative="1" as="geometry">
                        <mxPoint x="575" y="480" as="targetPoint"/>
                    </mxGeometry>
                </mxCell>
                <mxCell id="fBbD-oj5oAEslkXOo3_l-3" value="Funcionário" style="shape=umlActor;verticalLabelPosition=bottom;verticalAlign=top;html=1;outlineConnect=0;" parent="1" vertex="1">
                    <mxGeometry x="505" y="390" width="70" height="90" as="geometry"/>
                </mxCell>
                <mxCell id="fBbD-oj5oAEslkXOo3_l-4" value="Registrar o cliente" style="ellipse;whiteSpace=wrap;html=1;" parent="1" vertex="1">
                    <mxGeometry x="670" y="290" width="140" height="70" as="geometry"/>
                </mxCell>
                <mxCell id="fBbD-oj5oAEslkXOo3_l-5" value="Ver informações do cliente" style="ellipse;whiteSpace=wrap;html=1;" parent="1" vertex="1">
                    <mxGeometry x="670" y="680" width="140" height="70" as="geometry"/>
                </mxCell>
                <mxCell id="fBbD-oj5oAEslkXOo3_l-6" value="" style="html=1;verticalAlign=bottom;endArrow=block;entryX=0;entryY=0.5;entryDx=0;entryDy=0;" parent="1" target="fBbD-oj5oAEslkXOo3_l-4" edge="1">
                    <mxGeometry width="80" relative="1" as="geometry">
                        <mxPoint x="565" y="400" as="sourcePoint"/>
                        <mxPoint x="645" y="400" as="targetPoint"/>
                    </mxGeometry>
                </mxCell>
                <mxCell id="fBbD-oj5oAEslkXOo3_l-7" value="" style="html=1;verticalAlign=bottom;endArrow=block;entryX=0;entryY=0.5;entryDx=0;entryDy=0;exitX=1;exitY=1;exitDx=0;exitDy=0;exitPerimeter=0;" parent="1" source="fBbD-oj5oAEslkXOo3_l-3" target="fBbD-oj5oAEslkXOo3_l-5" edge="1">
                    <mxGeometry width="80" relative="1" as="geometry">
                        <mxPoint x="575" y="448" as="sourcePoint"/>
                        <mxPoint x="658.8079306431882" y="479.1286599531843" as="targetPoint"/>
                        <Array as="points"/>
                    </mxGeometry>
                </mxCell>
                <mxCell id="fBbD-oj5oAEslkXOo3_l-10" value="Gerar relatório" style="ellipse;whiteSpace=wrap;html=1;" parent="1" vertex="1">
                    <mxGeometry x="670" y="790" width="140" height="70" as="geometry"/>
                </mxCell>
                <mxCell id="fBbD-oj5oAEslkXOo3_l-11" value="" style="html=1;verticalAlign=bottom;endArrow=block;entryX=0;entryY=0.5;entryDx=0;entryDy=0;" parent="1" target="fBbD-oj5oAEslkXOo3_l-10" edge="1">
                    <mxGeometry width="80" relative="1" as="geometry">
                        <mxPoint x="575" y="500" as="sourcePoint"/>
                        <mxPoint x="635" y="652.6666666666666" as="targetPoint"/>
                        <Array as="points"/>
                    </mxGeometry>
                </mxCell>
                <mxCell id="fBbD-oj5oAEslkXOo3_l-16" value="&amp;lt;&amp;lt;include&amp;gt;&amp;gt;" style="html=1;verticalAlign=bottom;labelBackgroundColor=none;endArrow=open;endFill=0;dashed=1;exitX=1;exitY=0;exitDx=0;exitDy=0;entryX=0;entryY=0.5;entryDx=0;entryDy=0;" parent="1" source="fBbD-oj5oAEslkXOo3_l-4" target="fBbD-oj5oAEslkXOo3_l-19" edge="1">
                    <mxGeometry width="160" relative="1" as="geometry">
                        <mxPoint x="769.96" y="330.98" as="sourcePoint"/>
                        <mxPoint x="910.2629999999999" y="250.29999999999995" as="targetPoint"/>
                    </mxGeometry>
                </mxCell>
                <mxCell id="fBbD-oj5oAEslkXOo3_l-17" value="&amp;lt;&amp;lt;include&amp;gt;&amp;gt;" style="html=1;verticalAlign=bottom;labelBackgroundColor=none;endArrow=open;endFill=0;dashed=1;exitX=0.788;exitY=0.914;exitDx=0;exitDy=0;exitPerimeter=0;entryX=0;entryY=0.5;entryDx=0;entryDy=0;" parent="1" source="fBbD-oj5oAEslkXOo3_l-4" target="fBbD-oj5oAEslkXOo3_l-20" edge="1">
                    <mxGeometry width="160" relative="1" as="geometry">
                        <mxPoint x="779.96" y="340.98" as="sourcePoint"/>
                        <mxPoint x="1050" y="410" as="targetPoint"/>
                    </mxGeometry>
                </mxCell>
                <mxCell id="fBbD-oj5oAEslkXOo3_l-19" value="Obter tipo de treino" style="ellipse;whiteSpace=wrap;html=1;" parent="1" vertex="1">
                    <mxGeometry x="1020" y="180" width="140" height="70" as="geometry"/>
                </mxCell>
                <mxCell id="fBbD-oj5oAEslkXOo3_l-20" value="Gerar mensalidade" style="ellipse;whiteSpace=wrap;html=1;" parent="1" vertex="1">
                    <mxGeometry x="1020" y="300" width="140" height="70" as="geometry"/>
                </mxCell>
                <mxCell id="fBbD-oj5oAEslkXOo3_l-21" value="&amp;lt;&amp;lt;include&amp;gt;&amp;gt;" style="html=1;verticalAlign=bottom;labelBackgroundColor=none;endArrow=open;endFill=0;dashed=1;exitX=0.907;exitY=0.157;exitDx=0;exitDy=0;exitPerimeter=0;entryX=0;entryY=0.5;entryDx=0;entryDy=0;" parent="1" source="fBbD-oj5oAEslkXOo3_l-5" target="fBbD-oj5oAEslkXOo3_l-22" edge="1">
                    <mxGeometry width="160" relative="1" as="geometry">
                        <mxPoint x="780" y="520.98" as="sourcePoint"/>
                        <mxPoint x="1009.8890000000001" y="420" as="targetPoint"/>
                    </mxGeometry>
                </mxCell>
                <mxCell id="fBbD-oj5oAEslkXOo3_l-22" value="Identificar ID cliente" style="ellipse;whiteSpace=wrap;html=1;" parent="1" vertex="1">
                    <mxGeometry x="1020" y="585" width="140" height="70" as="geometry"/>
                </mxCell>
                <mxCell id="fBbD-oj5oAEslkXOo3_l-23" value="&amp;lt;&amp;lt;include&amp;gt;&amp;gt;" style="html=1;verticalAlign=bottom;labelBackgroundColor=none;endArrow=open;endFill=0;dashed=1;exitX=1;exitY=0.5;exitDx=0;exitDy=0;entryX=0;entryY=0.5;entryDx=0;entryDy=0;" parent="1" source="fBbD-oj5oAEslkXOo3_l-5" target="fBbD-oj5oAEslkXOo3_l-24" edge="1">
                    <mxGeometry width="160" relative="1" as="geometry">
                        <mxPoint x="786.98" y="510.99" as="sourcePoint"/>
                        <mxPoint x="1029.9" y="500.20000000000005" as="targetPoint"/>
                        <Array as="points"/>
                    </mxGeometry>
                </mxCell>
                <mxCell id="fBbD-oj5oAEslkXOo3_l-24" value="Confirmar pagamento" style="ellipse;whiteSpace=wrap;html=1;" parent="1" vertex="1">
                    <mxGeometry x="1020" y="670" width="140" height="70" as="geometry"/>
                </mxCell>
                <mxCell id="fBbD-oj5oAEslkXOo3_l-28" value="gerar relatório do cliente que já pagou a mensalidade" style="ellipse;whiteSpace=wrap;html=1;" parent="1" vertex="1">
                    <mxGeometry x="1020" y="760" width="140" height="70" as="geometry"/>
                </mxCell>
                <mxCell id="fBbD-oj5oAEslkXOo3_l-30" value="Gerar relatório dos clientes pagos e não pagos" style="ellipse;whiteSpace=wrap;html=1;" parent="1" vertex="1">
                    <mxGeometry x="1020" y="840" width="140" height="70" as="geometry"/>
                </mxCell>
                <mxCell id="Zh7j5uoqZMpFyatOVfKX-1" value="Registrar desconto" style="ellipse;whiteSpace=wrap;html=1;" parent="1" vertex="1">
                    <mxGeometry x="850" y="380" width="140" height="70" as="geometry"/>
                </mxCell>
                <mxCell id="JnWtBRoa83S7OX0xzhjg-1" value="&amp;lt;&amp;lt;extend&amp;gt;&amp;gt;" style="html=1;verticalAlign=bottom;labelBackgroundColor=none;endArrow=open;endFill=0;dashed=1;exitX=1;exitY=1;exitDx=0;exitDy=0;entryX=0;entryY=0.5;entryDx=0;entryDy=0;" parent="1" source="fBbD-oj5oAEslkXOo3_l-10" target="fBbD-oj5oAEslkXOo3_l-30" edge="1">
                    <mxGeometry width="160" relative="1" as="geometry">
                        <mxPoint x="810" y="840" as="sourcePoint"/>
                        <mxPoint x="970" y="840" as="targetPoint"/>
                    </mxGeometry>
                </mxCell>
                <mxCell id="JnWtBRoa83S7OX0xzhjg-2" value="&amp;lt;&amp;lt;extend&amp;gt;&amp;gt;" style="html=1;verticalAlign=bottom;labelBackgroundColor=none;endArrow=open;endFill=0;dashed=1;entryX=0;entryY=0.5;entryDx=0;entryDy=0;exitX=1;exitY=0;exitDx=0;exitDy=0;" parent="1" source="fBbD-oj5oAEslkXOo3_l-10" target="fBbD-oj5oAEslkXOo3_l-28" edge="1">
                    <mxGeometry width="160" relative="1" as="geometry">
                        <mxPoint x="806.5" y="694.49" as="sourcePoint"/>
                        <mxPoint x="1006.4948993037488" y="809.9977057814281" as="targetPoint"/>
                    </mxGeometry>
                </mxCell>
                <mxCell id="JnWtBRoa83S7OX0xzhjg-3" value="" style="html=1;verticalAlign=bottom;endArrow=block;entryX=0;entryY=0.5;entryDx=0;entryDy=0;" parent="1" source="fBbD-oj5oAEslkXOo3_l-3" target="Zh7j5uoqZMpFyatOVfKX-1" edge="1">
                    <mxGeometry width="80" relative="1" as="geometry">
                        <mxPoint x="470" y="600" as="sourcePoint"/>
                        <mxPoint x="575" y="525" as="targetPoint"/>
                    </mxGeometry>
                </mxCell>
                <mxCell id="Ihc_HZQFOZM6cAbWfPz8-1" value="Registrar plano treino" style="ellipse;whiteSpace=wrap;html=1;" parent="1" vertex="1">
                    <mxGeometry x="850" y="470" width="140" height="70" as="geometry"/>
                </mxCell>
                <mxCell id="Ihc_HZQFOZM6cAbWfPz8-2" value="Registrar Personal Trainer" style="ellipse;whiteSpace=wrap;html=1;" parent="1" vertex="1">
                    <mxGeometry x="820" y="560" width="140" height="70" as="geometry"/>
                </mxCell>
                <mxCell id="Ihc_HZQFOZM6cAbWfPz8-3" value="" style="endArrow=open;endSize=12;dashed=1;html=1;exitX=0.5;exitY=0;exitDx=0;exitDy=0;entryX=0.5;entryY=1;entryDx=0;entryDy=0;" parent="1" source="fBbD-oj5oAEslkXOo3_l-5" target="fBbD-oj5oAEslkXOo3_l-4" edge="1">
                    <mxGeometry x="-0.4375" y="240" width="160" relative="1" as="geometry">
                        <mxPoint x="660" y="510" as="sourcePoint"/>
                        <mxPoint x="820" y="510" as="targetPoint"/>
                        <mxPoint as="offset"/>
                    </mxGeometry>
                </mxCell>
                <mxCell id="Ihc_HZQFOZM6cAbWfPz8-5" value="" style="html=1;verticalAlign=bottom;endArrow=block;entryX=0;entryY=0.5;entryDx=0;entryDy=0;" parent="1" source="fBbD-oj5oAEslkXOo3_l-3" target="Ihc_HZQFOZM6cAbWfPz8-1" edge="1">
                    <mxGeometry width="80" relative="1" as="geometry">
                        <mxPoint x="420" y="630" as="sourcePoint"/>
                        <mxPoint x="515.000000000003" y="897" as="targetPoint"/>
                        <Array as="points"/>
                    </mxGeometry>
                </mxCell>
                <mxCell id="Ihc_HZQFOZM6cAbWfPz8-6" value="" style="html=1;verticalAlign=bottom;endArrow=block;entryX=0;entryY=0.5;entryDx=0;entryDy=0;" parent="1" source="fBbD-oj5oAEslkXOo3_l-3" target="Ihc_HZQFOZM6cAbWfPz8-2" edge="1">
                    <mxGeometry width="80" relative="1" as="geometry">
                        <mxPoint x="360" y="733" as="sourcePoint"/>
                        <mxPoint x="455.00000000000296" y="1000" as="targetPoint"/>
                        <Array as="points"/>
                    </mxGeometry>
                </mxCell>
            </root>
        </mxGraphModel>
    </diagram>
    <diagram id="O3YlXwnAtJnwgh6FTSEv" name="Class">
        <mxGraphModel dx="990" dy="564" grid="1" gridSize="10" guides="1" tooltips="1" connect="1" arrows="1" fold="1" page="1" pageScale="1" pageWidth="850" pageHeight="1100" math="0" shadow="0">
            <root>
                <mxCell id="ne9PBTsK3VRg3-9Nk_Kp-0"/>
                <mxCell id="ne9PBTsK3VRg3-9Nk_Kp-1" parent="ne9PBTsK3VRg3-9Nk_Kp-0"/>
                <mxCell id="p8OCCZdQuoeGwK0md2rq-1" value="&lt;p style=&quot;margin: 0px ; margin-top: 4px ; text-align: center&quot;&gt;&lt;i&gt;&amp;lt;&amp;lt;Interface&amp;gt;&amp;gt;&lt;/i&gt;&lt;br&gt;&lt;b&gt;IPessoa&lt;/b&gt;&lt;/p&gt;&lt;hr size=&quot;1&quot;&gt;&lt;p style=&quot;margin: 0px ; margin-left: 4px&quot;&gt;# id: int&lt;br&gt;# nome: int&lt;/p&gt;&lt;p style=&quot;margin: 0px ; margin-left: 4px&quot;&gt;# BI: int&lt;/p&gt;&lt;p style=&quot;margin: 0px ; margin-left: 4px&quot;&gt;# telephone: string&lt;/p&gt;&lt;hr size=&quot;1&quot;&gt;&lt;p style=&quot;margin: 0px ; margin-left: 4px&quot;&gt;+ IPessoa(id,string nome, string telephone&lt;span&gt;)&lt;/span&gt;&lt;/p&gt;&lt;p style=&quot;margin: 0px ; margin-left: 4px&quot;&gt;+ getId()&lt;/p&gt;" style="verticalAlign=top;align=left;overflow=fill;fontSize=12;fontFamily=Helvetica;html=1;" vertex="1" parent="ne9PBTsK3VRg3-9Nk_Kp-1">
                    <mxGeometry x="360" y="170" width="290" height="180" as="geometry"/>
                </mxCell>
                <mxCell id="p8OCCZdQuoeGwK0md2rq-6" value="Cliente" style="swimlane;fontStyle=1;align=center;verticalAlign=top;childLayout=stackLayout;horizontal=1;startSize=26;horizontalStack=0;resizeParent=1;resizeParentMax=0;resizeLast=0;collapsible=1;marginBottom=0;" vertex="1" parent="ne9PBTsK3VRg3-9Nk_Kp-1">
                    <mxGeometry x="70" y="460" width="160" height="112" as="geometry">
                        <mxRectangle x="70" y="460" width="100" height="26" as="alternateBounds"/>
                    </mxGeometry>
                </mxCell>
                <mxCell id="p8OCCZdQuoeGwK0md2rq-7" value="+ id: int" style="text;strokeColor=none;fillColor=none;align=left;verticalAlign=top;spacingLeft=4;spacingRight=4;overflow=hidden;rotatable=0;points=[[0,0.5],[1,0.5]];portConstraint=eastwest;" vertex="1" parent="p8OCCZdQuoeGwK0md2rq-6">
                    <mxGeometry y="26" width="160" height="26" as="geometry"/>
                </mxCell>
                <mxCell id="p8OCCZdQuoeGwK0md2rq-16" value="+ nome: string" style="text;strokeColor=none;fillColor=none;align=left;verticalAlign=top;spacingLeft=4;spacingRight=4;overflow=hidden;rotatable=0;points=[[0,0.5],[1,0.5]];portConstraint=eastwest;" vertex="1" parent="p8OCCZdQuoeGwK0md2rq-6">
                    <mxGeometry y="52" width="160" height="26" as="geometry"/>
                </mxCell>
                <mxCell id="p8OCCZdQuoeGwK0md2rq-8" value="" style="line;strokeWidth=1;fillColor=none;align=left;verticalAlign=middle;spacingTop=-1;spacingLeft=3;spacingRight=3;rotatable=0;labelPosition=right;points=[];portConstraint=eastwest;" vertex="1" parent="p8OCCZdQuoeGwK0md2rq-6">
                    <mxGeometry y="78" width="160" height="8" as="geometry"/>
                </mxCell>
                <mxCell id="p8OCCZdQuoeGwK0md2rq-9" value="+ cliente(nome,bi,) " style="text;strokeColor=none;fillColor=none;align=left;verticalAlign=top;spacingLeft=4;spacingRight=4;overflow=hidden;rotatable=0;points=[[0,0.5],[1,0.5]];portConstraint=eastwest;" vertex="1" parent="p8OCCZdQuoeGwK0md2rq-6">
                    <mxGeometry y="86" width="160" height="26" as="geometry"/>
                </mxCell>
                <mxCell id="p8OCCZdQuoeGwK0md2rq-10" value="PersonalTrainer" style="swimlane;fontStyle=1;align=center;verticalAlign=top;childLayout=stackLayout;horizontal=1;startSize=26;horizontalStack=0;resizeParent=1;resizeParentMax=0;resizeLast=0;collapsible=1;marginBottom=0;" vertex="1" parent="ne9PBTsK3VRg3-9Nk_Kp-1">
                    <mxGeometry x="620" y="456" width="160" height="86" as="geometry"/>
                </mxCell>
                <mxCell id="p8OCCZdQuoeGwK0md2rq-11" value="+ field: type" style="text;strokeColor=none;fillColor=none;align=left;verticalAlign=top;spacingLeft=4;spacingRight=4;overflow=hidden;rotatable=0;points=[[0,0.5],[1,0.5]];portConstraint=eastwest;" vertex="1" parent="p8OCCZdQuoeGwK0md2rq-10">
                    <mxGeometry y="26" width="160" height="26" as="geometry"/>
                </mxCell>
                <mxCell id="p8OCCZdQuoeGwK0md2rq-12" value="" style="line;strokeWidth=1;fillColor=none;align=left;verticalAlign=middle;spacingTop=-1;spacingLeft=3;spacingRight=3;rotatable=0;labelPosition=right;points=[];portConstraint=eastwest;" vertex="1" parent="p8OCCZdQuoeGwK0md2rq-10">
                    <mxGeometry y="52" width="160" height="8" as="geometry"/>
                </mxCell>
                <mxCell id="p8OCCZdQuoeGwK0md2rq-13" value="+ method(type): type" style="text;strokeColor=none;fillColor=none;align=left;verticalAlign=top;spacingLeft=4;spacingRight=4;overflow=hidden;rotatable=0;points=[[0,0.5],[1,0.5]];portConstraint=eastwest;" vertex="1" parent="p8OCCZdQuoeGwK0md2rq-10">
                    <mxGeometry y="60" width="160" height="26" as="geometry"/>
                </mxCell>
                <mxCell id="p8OCCZdQuoeGwK0md2rq-14" value="Extends" style="endArrow=block;endSize=16;endFill=0;html=1;" edge="1" parent="ne9PBTsK3VRg3-9Nk_Kp-1" source="p8OCCZdQuoeGwK0md2rq-1" target="p8OCCZdQuoeGwK0md2rq-10">
                    <mxGeometry width="160" relative="1" as="geometry">
                        <mxPoint x="340" y="290" as="sourcePoint"/>
                        <mxPoint x="500" y="290" as="targetPoint"/>
                    </mxGeometry>
                </mxCell>
                <mxCell id="p8OCCZdQuoeGwK0md2rq-15" value="Extends" style="endArrow=block;endSize=16;endFill=0;html=1;" edge="1" parent="ne9PBTsK3VRg3-9Nk_Kp-1" source="p8OCCZdQuoeGwK0md2rq-1" target="p8OCCZdQuoeGwK0md2rq-6">
                    <mxGeometry width="160" relative="1" as="geometry">
                        <mxPoint x="220" y="310" as="sourcePoint"/>
                        <mxPoint x="380" y="310" as="targetPoint"/>
                    </mxGeometry>
                </mxCell>
                <mxCell id="p8OCCZdQuoeGwK0md2rq-24" value="PlanoTreino" style="swimlane;fontStyle=1;align=center;verticalAlign=top;childLayout=stackLayout;horizontal=1;startSize=26;horizontalStack=0;resizeParent=1;resizeParentMax=0;resizeLast=0;collapsible=1;marginBottom=0;" vertex="1" parent="ne9PBTsK3VRg3-9Nk_Kp-1">
                    <mxGeometry x="70" y="710" width="160" height="138" as="geometry"/>
                </mxCell>
                <mxCell id="p8OCCZdQuoeGwK0md2rq-25" value="- id:int" style="text;strokeColor=none;fillColor=none;align=left;verticalAlign=top;spacingLeft=4;spacingRight=4;overflow=hidden;rotatable=0;points=[[0,0.5],[1,0.5]];portConstraint=eastwest;" vertex="1" parent="p8OCCZdQuoeGwK0md2rq-24">
                    <mxGeometry y="26" width="160" height="26" as="geometry"/>
                </mxCell>
                <mxCell id="p8OCCZdQuoeGwK0md2rq-29" value="+ nome: string" style="text;strokeColor=none;fillColor=none;align=left;verticalAlign=top;spacingLeft=4;spacingRight=4;overflow=hidden;rotatable=0;points=[[0,0.5],[1,0.5]];portConstraint=eastwest;" vertex="1" parent="p8OCCZdQuoeGwK0md2rq-24">
                    <mxGeometry y="52" width="160" height="26" as="geometry"/>
                </mxCell>
                <mxCell id="p8OCCZdQuoeGwK0md2rq-28" value="+ descricao: string" style="text;strokeColor=none;fillColor=none;align=left;verticalAlign=top;spacingLeft=4;spacingRight=4;overflow=hidden;rotatable=0;points=[[0,0.5],[1,0.5]];portConstraint=eastwest;" vertex="1" parent="p8OCCZdQuoeGwK0md2rq-24">
                    <mxGeometry y="78" width="160" height="26" as="geometry"/>
                </mxCell>
                <mxCell id="p8OCCZdQuoeGwK0md2rq-26" value="" style="line;strokeWidth=1;fillColor=none;align=left;verticalAlign=middle;spacingTop=-1;spacingLeft=3;spacingRight=3;rotatable=0;labelPosition=right;points=[];portConstraint=eastwest;" vertex="1" parent="p8OCCZdQuoeGwK0md2rq-24">
                    <mxGeometry y="104" width="160" height="8" as="geometry"/>
                </mxCell>
                <mxCell id="p8OCCZdQuoeGwK0md2rq-27" value="+ method(type): type" style="text;strokeColor=none;fillColor=none;align=left;verticalAlign=top;spacingLeft=4;spacingRight=4;overflow=hidden;rotatable=0;points=[[0,0.5],[1,0.5]];portConstraint=eastwest;" vertex="1" parent="p8OCCZdQuoeGwK0md2rq-24">
                    <mxGeometry y="112" width="160" height="26" as="geometry"/>
                </mxCell>
                <mxCell id="p8OCCZdQuoeGwK0md2rq-30" value="Desconto" style="swimlane;fontStyle=1;align=center;verticalAlign=top;childLayout=stackLayout;horizontal=1;startSize=26;horizontalStack=0;resizeParent=1;resizeParentMax=0;resizeLast=0;collapsible=1;marginBottom=0;" vertex="1" parent="ne9PBTsK3VRg3-9Nk_Kp-1">
                    <mxGeometry x="620" y="710" width="160" height="138" as="geometry"/>
                </mxCell>
                <mxCell id="p8OCCZdQuoeGwK0md2rq-31" value="+ id: int" style="text;strokeColor=none;fillColor=none;align=left;verticalAlign=top;spacingLeft=4;spacingRight=4;overflow=hidden;rotatable=0;points=[[0,0.5],[1,0.5]];portConstraint=eastwest;" vertex="1" parent="p8OCCZdQuoeGwK0md2rq-30">
                    <mxGeometry y="26" width="160" height="26" as="geometry"/>
                </mxCell>
                <mxCell id="p8OCCZdQuoeGwK0md2rq-34" value="+ nome: string" style="text;strokeColor=none;fillColor=none;align=left;verticalAlign=top;spacingLeft=4;spacingRight=4;overflow=hidden;rotatable=0;points=[[0,0.5],[1,0.5]];portConstraint=eastwest;" vertex="1" parent="p8OCCZdQuoeGwK0md2rq-30">
                    <mxGeometry y="52" width="160" height="26" as="geometry"/>
                </mxCell>
                <mxCell id="p8OCCZdQuoeGwK0md2rq-35" value="+ desconto: int" style="text;strokeColor=none;fillColor=none;align=left;verticalAlign=top;spacingLeft=4;spacingRight=4;overflow=hidden;rotatable=0;points=[[0,0.5],[1,0.5]];portConstraint=eastwest;" vertex="1" parent="p8OCCZdQuoeGwK0md2rq-30">
                    <mxGeometry y="78" width="160" height="26" as="geometry"/>
                </mxCell>
                <mxCell id="p8OCCZdQuoeGwK0md2rq-32" value="" style="line;strokeWidth=1;fillColor=none;align=left;verticalAlign=middle;spacingTop=-1;spacingLeft=3;spacingRight=3;rotatable=0;labelPosition=right;points=[];portConstraint=eastwest;" vertex="1" parent="p8OCCZdQuoeGwK0md2rq-30">
                    <mxGeometry y="104" width="160" height="8" as="geometry"/>
                </mxCell>
                <mxCell id="p8OCCZdQuoeGwK0md2rq-33" value="+ method(type): type" style="text;strokeColor=none;fillColor=none;align=left;verticalAlign=top;spacingLeft=4;spacingRight=4;overflow=hidden;rotatable=0;points=[[0,0.5],[1,0.5]];portConstraint=eastwest;" vertex="1" parent="p8OCCZdQuoeGwK0md2rq-30">
                    <mxGeometry y="112" width="160" height="26" as="geometry"/>
                </mxCell>
            </root>
        </mxGraphModel>
    </diagram>
</mxfile>